# xmcd
#
# Track frame offsets: 
#        150
#        20088
#        42558
#        62843
#        84005
#        107400
#        129975
#        151730
#
# Disc length: 2311 seconds
#
# Revision: 5
# Processed by: cddbd v1.5.2PL0 Copyright (c) Steve Scherf et al.
# Submitted via: ExactAudioCopy v0.99pb5
#
DISCID=58090508
DTITLE=RAF - Cosa Resterà...
DYEAR=1989
DGENRE=Pop
TTITLE0=Ti Pretendo
TTITLE1=Santì Nel Viavai
TTITLE2=La Battaglia Del Sesso
TTITLE3=E Gli Altri Dormono
TTITLE4=Cosa Resterà Degli Anni '80
TTITLE5=Do I Need Your Love
TTITLE6=Fai
TTITLE7=E Sia Così 
EXTD=
EXTT0=
EXTT1=
EXTT2=
EXTT3=
EXTT4=
EXTT5=
EXTT6=
EXTT7=
PLAYORDER=
